<?xml version="1.0" encoding="UTF-8" standalone="no"?>
<svg xmlns:rdf="http://www.w3.org/1999/02/22-rdf-syntax-ns#" xmlns="http://www.w3.org/2000/svg" enable-background="new 0 0 295.368 44.879" xml:space="preserve" height="44.879px" viewBox="0 0 295.368 44.879" width="295.37px" version="1.1" y="0px" x="0px" xmlns:cc="http://creativecommons.org/ns#" xmlns:dc="http://purl.org/dc/elements/1.1/"><path d="m97.739 16.979c0.01-1.56-0.432-6.3-5.891-6.3-6.181 0-9.12 6-10.042 11.76s0.098 11.76 6.278 11.76c4.439 0 6.679-3.121 8.102-7.141h12.96c-1.383 8.641-9.871 17.82-22.411 17.82-13.859 0-20.154-9.781-18.128-22.439 2.156-13.5 12.105-22.439 25.305-22.439 11.75 0.061 17.241 6.24 16.662 16.979h-12.841z"/><path d="m172.24 16.979c0.01-1.56-0.432-6.3-5.891-6.3-6.182 0-9.121 6-10.042 11.76-0.922 5.76 0.098 11.76 6.278 11.76 4.439 0 6.679-3.121 8.102-7.141h12.96c-1.383 8.641-9.871 17.82-22.411 17.82-13.859 0-20.154-9.781-18.128-22.439 2.16-13.5 12.11-22.439 25.31-22.439 11.751 0.061 17.241 6.24 16.662 16.979h-12.84z"/><path d="m282.49 16.979c0.01-1.56-0.432-6.3-5.891-6.3-6.182 0-9.121 6-10.042 11.76-0.922 5.76 0.098 11.76 6.278 11.76 4.439 0 6.679-3.121 8.102-7.141h12.96c-1.383 8.641-9.871 17.82-22.411 17.82-13.859 0-20.154-9.781-18.128-22.439 2.16-13.5 12.1-22.439 25.3-22.439 11.751 0.061 17.241 6.24 16.662 16.979h-12.83z"/><path d="m123.11 19.961h8.528l-1.074 6.59h-8.528l1.07-6.59z"/><path d="m69.744 13.26c1.296-8.1-4.521-12.239-12.021-12.239h-25.139l-1.632 10.199h19.379c5.04 0 6.291 1.56 5.858 4.261-0.614 3.84-4.042 4.259-6.502 4.259h-20.098l-0.599 3.74-8.636-22.459h-13.5l-6.854 42.836h12.479l3.744-23.398h0.12l9.389 23.381-0.003 0.018h13.2l2.391-14.938h7.02c5.22 0 4.898 4.258 4.606 8.338-0.175 2.221-0.291 4.439 0.024 6.6h13.199c-0.883-1.979-0.127-7.078 0.028-9.178 0.375-5.342-1.211-9.301-4.591-10.68 4.639-1.621 7.427-6.301 8.138-10.74z"/><path d="m253.75 13.26c1.295-8.1-4.521-12.239-12.021-12.239h-25.139l-1.633 10.199h19.379c5.041 0 6.291 1.56 5.859 4.261-0.615 3.84-4.043 4.259-6.502 4.259h-20.1l-0.598 3.74-8.637-22.459h-13.5l-6.854 42.837h12.479l3.744-23.398h0.121l9.389 23.381-0.004 0.018h13.2l2.391-14.938h7.02c5.221 0 4.898 4.258 4.606 8.338-0.175 2.221-0.29 4.439 0.024 6.6h13.199c-0.884-1.979-0.127-7.078 0.027-9.178 0.375-5.342-1.211-9.301-4.59-10.68 4.63-1.622 7.42-6.302 8.13-10.741z"/></svg>
